<svg width="150" height="24" viewBox="0 0 150 24" fill="none" xmlns="http://www.w3.org/2000/svg">
<path d="M31.9917 0.313782H25.8608V23.6862H31.9917V0.313782Z" fill="#1C1C1C"/>
<path d="M48.5335 14.4414H53.4102V18.3828C52.6435 18.5923 51.5994 18.8368 50.066 18.8368C44.4927 18.8368 41.636 16.9533 41.636 11.9295C41.636 6.90567 44.2835 5.16235 49.8569 5.16235C53.5844 5.16235 56.6844 5.65054 58.3219 6.27894V0.942175C56.5452 0.34883 53.4102 0 49.4394 0C39.721 0 35.2969 3.31388 35.2969 11.9654C35.2969 20.6169 39.9644 24 49.3002 24C52.9577 24 56.406 23.163 56.6152 23.0929C58.461 22.6047 59.541 21.1393 59.541 19.1164V9.55777H48.5335V14.4414Z" fill="#1C1C1C"/>
<path d="M69.6557 0.313782H63.5249V23.6862H69.6557V0.313782Z" fill="#1C1C1C"/>
<path d="M94.7115 0.313782H72.3481V5.1974H80.464V23.6854H86.5948V5.1974H94.7115V0.313782Z" fill="#1C1C1C"/>
<path d="M106.045 0C103.468 0 102.178 0.977225 101.238 3.13947L92.4243 23.6862H99.461L101.063 19.4302H110.956L112.558 23.6862H119.595L110.817 3.10525C109.911 0.977225 108.553 0.0008347 106.044 0.0008347L106.045 0ZM102.91 14.5457L105.662 7.28954C105.732 7.08008 105.906 6.97576 106.045 6.97576C106.219 6.97576 106.358 7.08091 106.428 7.28954L109.145 14.5457H102.91Z" fill="#1C1C1C"/>
<path d="M127.404 17.232V0.313782H121.273V18.3486C121.273 21.07 123.468 23.6854 127.23 23.6854H141.198V18.8018H129.007C127.997 18.8018 127.404 18.2084 127.404 17.232Z" fill="#1C1C1C"/>
<path d="M150 0.313782H143.869V23.6862H150V0.313782Z" fill="#1C1C1C"/>
<path d="M19.045 3.51584C16.8783 1.34358 13.8817 0 10.5733 0H0V24H10.5733C17.19 24 22.5558 18.6265 22.5558 12.0004C22.5558 8.68737 21.2142 5.68893 19.045 3.51667V3.51584ZM10.6442 18.589H5.32833L11.9083 11.9996L5.32833 5.4102H10.6442L17.2242 11.9996L10.6442 18.589Z" fill="#0053F3"/>
</svg>
