<svg width="173" height="50" viewBox="0 0 173 50" fill="none" xmlns="http://www.w3.org/2000/svg">
<path d="M136.282 16.0793H160.471C161.867 16.0793 163 14.9501 163 13.5521V10.0269H135.919C127.537 10.0269 120.535 16.8791 120.68 25.2503C120.817 33.383 127.484 39.9563 135.653 39.9563H160.471C161.867 39.9563 163 38.8271 163 37.4291V33.9039H136.484C131.493 33.9039 127.275 29.8241 127.362 24.837C127.443 19.991 131.415 16.0759 136.282 16.0759V16.0793Z" fill="#DE0427"/>
<path d="M109.386 10.0302C107.99 10.0302 106.856 11.1594 106.856 12.5574V39.963H111.013C112.409 39.963 113.543 38.8339 113.543 37.4359V10.0302H109.386Z" fill="#DE0427"/>
<path d="M49.8047 24.6387C51.1197 22.9954 51.8227 20.932 51.7789 18.8249C51.6814 14.0394 47.4537 10 42.5467 10H10.0034V13.5353C10.0034 14.93 11.1334 16.0625 12.5326 16.0625H42.6375C44.2586 16.0625 45.6678 17.3731 45.7149 18.9224C45.7418 19.7894 45.3988 20.6027 44.753 21.1941C44.188 21.7117 43.4245 21.9671 42.6577 21.9671H12.5292C11.1334 21.9671 10 23.0962 10 24.4942V37.4728C10 38.8675 11.1301 40 12.5292 40H43.1857C48.1567 40 52.3473 36.0681 52.4079 31.1011C52.4381 28.6681 51.5099 26.3728 49.8013 24.6488L49.8047 24.6387ZM43.3909 33.9274H16.0674V28.0262H43.3909C45.0187 28.0262 46.3438 29.3503 46.3438 30.9768C46.3438 32.6033 45.0187 33.9274 43.3909 33.9274Z" fill="#DE0427"/>
<path d="M101.213 39.9597L86.8313 15.2022C84.9714 11.9995 81.5442 10.0302 77.8378 10.0302C74.1315 10.0302 70.7076 11.9995 68.8443 15.2022L54.4629 39.9597H60.1065C61.3442 39.9597 62.4877 39.301 63.1099 38.2323L74.7806 18.1427C76.1427 15.797 79.5329 15.797 80.8951 18.1427L92.5657 38.2323C93.1879 39.301 94.3314 39.9597 95.5691 39.9597H101.213Z" fill="#DE0427"/>
</svg>
