<svg version="1.2" xmlns="http://www.w3.org/2000/svg" viewBox="0 0 1552 448" width="1552" height="448">
	<title>COLBUN</title>
	<defs>
		<linearGradient id="g1" x2="1" gradientUnits="userSpaceOnUse" gradientTransform="matrix(214.244,-214.244,138.748,138.748,252.349,271.531)">
			<stop offset="0" stop-color="#e43b28"/>
			<stop offset=".24" stop-color="#ef8524"/>
			<stop offset=".54" stop-color="#f6aa16"/>
			<stop offset=".78" stop-color="#f6aa16"/>
			<stop offset="1" stop-color="#fbc604"/>
		</linearGradient>
		<linearGradient id="g2" x2="1" gradientUnits="userSpaceOnUse" gradientTransform="matrix(288.018,-288.018,280.018,280.018,191.008,349.85)">
			<stop offset="0" stop-color="#009539"/>
			<stop offset=".25" stop-color="#97bf1e"/>
			<stop offset=".61" stop-color="#d1c909"/>
			<stop offset="1" stop-color="#ffd102"/>
		</linearGradient>
		<linearGradient id="g3" x2="1" gradientUnits="userSpaceOnUse" gradientTransform="matrix(399.581,-399.581,238.562,238.562,38.588,336.63)">
			<stop offset="0" stop-color="#1e70b6"/>
			<stop offset=".3" stop-color="#00abd2"/>
			<stop offset=".63" stop-color="#64b032"/>
			<stop offset=".91" stop-color="#99c01d"/>
			<stop offset="1" stop-color="#99c01d"/>
		</linearGradient>
	</defs>
	<style>
		.s0 { fill: #7a7f86 } 
		.s1 { fill: url(#g1) } 
		.s2 { fill: url(#g2) } 
		.s3 { fill: url(#g3) } 
	</style>
	<path fill-rule="evenodd" class="s0" d="m647 381c2.5-5.1 6.4-6.4 11.1-3.4l15.8 9c4.2 2.5 5.9 6.4 3.4 11.1-17.9 33.2-47.8 49.9-89.2 49.9-64.4 0-99.4-35.9-99.4-102.4v-88.7c0-66.5 35-102.3 99.4-102.3 41.8 0 71.7 16.6 89.2 49.9 2.5 4.7 1.3 8.5-3.4 11l-15.8 9c-4.7 3-8.6 1.7-11.1-3-12-21.7-31.2-33.2-58.9-33.2-41 0-61 24.3-61 73.3v79.3c0 49.1 20 73.4 61 73.4 27.7 0 46.9-11.5 58.9-32.9zm217.2-74.2v60.6c0 52-28.2 80.2-80.7 80.2-52.1 0-80.2-28.2-80.2-80.2v-60.6c0-52.4 28.1-80.6 80.2-80.6 52.5 0 80.7 28.2 80.7 80.6zm-35.5 3.9c0-36.7-14-53.8-45.2-53.8-30.7 0-44.8 17.1-44.8 53.8v52.9c0 36.2 14.1 53.3 44.8 53.3 31.2 0 45.2-17.1 45.2-53.3zm86.2 131.7c-5.1 0-8.1-3-8.1-8.1v-282.3c0-5.1 3-8.1 8.1-8.1h19.2c5.1 0 8.1 3 8.1 8.1v282.3c0 5.1-3 8.1-8.1 8.1zm236.4-135.6v60.1c0 52.5-28.2 80.6-80.2 80.6-52.5 0-80.7-28.1-80.7-80.6v-214.9c0-5.1 3-8.1 8.1-8.1h19.2c5.2 0 8.1 3 8.1 8.1v95.5h0.9c10.7-14 27.3-21.3 49.9-21.3 48.7 0 74.7 28.2 74.7 80.6zm-35.4 3.9c0-36.7-14.1-53.8-44.8-53.8-30.3 0-45.3 17.9-45.3 53.8v52.8c0 36.3 14.1 53.3 45.3 53.3 30.7 0 44.8-17 44.8-53.3zm231.2 59.3c0 50.8-27.3 77.6-77.6 77.6-50.4 0-77.7-26.8-77.7-77.6v-130.5c0-5.1 3-8.1 8.1-8.1h19.2c5.1 0 8.1 3 8.1 8.1v127.5c0 34.6 13.3 49.9 42.7 49.9 29.4 0 42.7-15.3 42.7-49.9v-127.5c0-5.1 3-8.1 8.1-8.1h18.3c5.1 0 8.1 3 8.1 8.1zm168.6-61c0-35.8-13.7-52-43.6-52-29.8 0-43.5 16.2-43.5 52v125.4c0 5.1-3 8.1-8.1 8.1h-19.2c-5.1 0-8.1-3-8.1-8.1v-129.2c0-51.2 27.7-78.9 78.9-78.9 51.2 0 79 27.7 79 78.9v129.2c0 5.1-3 8.1-8.1 8.1h-19.2c-5.2 0-8.1-3-8.1-8.1z"/>
	<path class="s1" d="m234.8 160.3c-19.7 48.1 0.3 104.9 68.1 158.9 14 11.2 34.4 8.7 45.5-5.3 10.8-13.7 8.7-33.4-4.5-44.7q0 0 0.1 0c-33.8-32.2-48.8-70.1-35.5-102.4 21-51 104.3-67.6 193.9-44 6 1.6 12.2-1.4 14-7.3 1.9-5.8-1.3-12-7.1-13.9v-0.1c-38.9-12.2-77.6-18-113.3-18-77.5 0-140.9 27.4-161.2 76.8z"/>
	<path class="s2" d="m124.1 151.2c-40 97.3 52.9 225.4 212.2 292.6 23 9.7 49.5-0.4 59.5-23.2 10-22.9-0.6-48.9-23.2-59.5-111.5-52.7-164.8-134.5-137.8-200.1 25.7-62.6 119.7-90.2 224.5-71.9 0.7 0.2 1.2 0.4 1.9 0.5 9.6 1.5 18.6-5 20.2-14.6 1.5-9.6-2.8-17.4-14.6-20.1-39.3-9-77.9-13.3-114.3-13.3-109.8 0-199.5 39.4-228.4 109.6z"/>
	<path class="s3" d="m308.4 0.2c-141.6 0.2-257.1 50.7-295 141.1-36.1 86.6 6.8 189.7 112.9 280.9 20.5 17.6 50 13.8 68.8-8.1 27-36.3-8.4-69-8.6-69.2-59.4-60.5-87.5-132.7-62.4-193.7 42.2-102.8 214.6-138.8 390-83.7 5.6 1.8 12.4 4 12.9 4.2 8.5 3.7 18.5-0.1 22.2-8.6 3.7-8.6-0.1-18.5-8.6-22.2-0.5-0.2-13.1-4.3-18.9-6.1-72.7-23.4-145.1-34.6-211.7-34.6z"/>
</svg>