<svg width="2500" height="354" viewBox="0 0 2500 354" fill="none" xmlns="http://www.w3.org/2000/svg">
<path d="M439.639 0L359.77 108.524H795.072C817.085 108.524 816.81 116.813 806.051 131.469C795.127 146.29 776.848 171.925 765.705 187.021C760.051 194.651 749.84 208.539 783.655 208.539H961.673L1014.43 136.849C1047.14 92.4401 1017.28 0.054863 900.303 0.054863L439.639 0Z" fill="#D80613"/>
<path d="M327.438 353.567L487.891 135.531H686.988C709 135.531 708.726 143.875 697.967 158.477L657.346 213.809C651.692 221.439 641.482 235.327 675.296 235.327H941.967C919.845 265.738 847.825 353.567 718.716 353.567H327.438ZM1246.24 235.272L1159.23 353.567H929.726L1016.73 235.272H1246.24ZM1597.78 208.484H1036.49L1189.97 0H1419.37L1331.43 119.557H1433.81L1521.86 0H1751.26L1597.78 208.484ZM1578.07 235.272L1491.06 353.567H1261.66L1348.67 235.272H1578.07ZM0 281.931H338.032L319.588 307.018H0V281.931ZM0 235.272H372.395L353.896 260.358H0V235.272ZM0 328.591H303.724L285.335 353.567H0V328.591ZM2500 307.018H2163.18L2181.67 281.931H2500V307.018ZM2500 353.567H2128.98L2147.31 328.591H2500V353.567ZM2215.98 235.272H2500V260.413H2197.54L2215.98 235.272ZM2068.98 0L1915.5 208.484H1672.38L1825.97 0H2068.98ZM1652.72 235.272C1652.72 235.272 1635.98 258.217 1627.8 269.196C1599.04 308.17 1624.45 353.512 1718.49 353.512H2086.93L2173.93 235.272H1652.72Z" fill="#D80613"/>
</svg>
