<?xml version="1.0" encoding="utf-8"?>
<!-- Generator: Adobe Illustrator 16.0.0, SVG Export Plug-In . SVG Version: 6.00 Build 0)  -->
<!DOCTYPE svg PUBLIC "-//W3C//DTD SVG 1.1//EN" "http://www.w3.org/Graphics/SVG/1.1/DTD/svg11.dtd">
<svg version="1.1" id="Layer_1" xmlns="http://www.w3.org/2000/svg" xmlns:xlink="http://www.w3.org/1999/xlink" x="0px" y="0px"
	 width="146.625px" height="146.625px" viewBox="0 0 146.625 146.625" enable-background="new 0 0 146.625 146.625"
	 xml:space="preserve">
<g>
	<rect fill="#007DFF" width="146.625" height="146.625"/>
	<path fill="#FFFFFF" d="M81.603,30.584v-4.327h-4.327v-6.19h-4.648v6.19h-3.04v4.327h3.04c0,0,0,10.879,0,13.652
		c0,2.773-0.379,8.081,4.312,8.081c2.192,0,4.619,0,4.619,0l-0.013-4.631c0,0-1.463,0-2.193,0c-2.397,0-2.076-2.515-2.076-3.45
		V30.584H81.603z"/>
	<path fill="#FFFFFF" stroke="#000000" stroke-width="0.25" stroke-miterlimit="10" d="M90.256,40.597"/>
	<polygon fill="#FFFFFF" points="138.932,52.306 126.973,38.536 138.494,25.831 132.092,25.831 121.713,37.168 121.713,14.429 
		117.064,14.429 117.064,52.277 121.713,52.277 121.713,40.061 132.529,52.306 	"/>
	<path fill="#FFFFFF" d="M36.873,25.907h-4.648v2.155c-2.453-2.139-5.662-3.445-9.187-3.445c-7.69,0-13.923,6.171-13.923,13.784
		c0,7.614,6.233,13.785,13.923,13.785c3.525,0,6.734-1.307,9.187-3.445c0,0,0,0.583,0,3.477c0,2.894-2.5,5.664-9.209,5.664
		c-6.709,0-9.034-4.523-9.034-4.523l-3.566,2.543c0,0,3.72,6.885,12.6,6.885c8.88,0,13.857-4.78,13.857-10.568V25.907z
		 M23.283,46.81c-4.938,0-8.94-3.829-8.94-8.553c0-4.724,4.002-8.553,8.94-8.553s8.94,3.829,8.94,8.553
		C32.223,42.98,28.22,46.81,23.283,46.81z"/>
	<path fill="#FFFFFF" d="M54.325,25.538c-5.349,0-8.506,1.904-9.164,2.562l1.652,3.274c0,0,1.988-2.105,7.47-2.105
		c5.745,0,7.06,2.825,7.06,4.707v2.336c-2.023-1.699-4.824-2.752-7.922-2.752c-6.167,0-10.891,3.062-10.891,9.187
		c0,6.125,4.724,9.449,10.891,9.449c3.098,0,5.899-1.053,7.922-2.752v2.775h4.648V33.976C65.991,31.344,65.815,25.538,54.325,25.538
		z M54.173,47.658c-3.669,0-6.644-2.14-6.644-4.78c0-2.64,2.974-4.78,6.644-4.78s6.644,2.14,6.644,4.78
		C60.816,45.518,57.842,47.658,54.173,47.658z"/>
	<path fill="#FFFFFF" d="M111.598,40.466c0.11-3.385,0.101-6.276-0.848-8.365c-2.31-5.086-6.303-7.241-12.191-7.241
		c-6.908,0-13.185,4.767-13.185,13.238c0,8.069,4.429,14.208,13.587,14.208c4.887,0,9.221-2.119,11.467-5.584l-3.215-2.353
		c-2.544,2.792-4.727,3.645-8.148,3.645c-5.227,0-8.848-3.416-8.848-7.292l0.035-0.113C90.252,40.609,111.598,40.521,111.598,40.466
		z M98.441,29.152c4.263,0,8.216,3.049,8.216,6.924c-0.058,0-16.284-0.007-16.284,0C90.373,32.201,94.18,29.152,98.441,29.152z"/>
</g>
</svg>
