<svg xmlns="http://www.w3.org/2000/svg" xmlns:xlink="http://www.w3.org/1999/xlink" width="228.836" height="77.247" viewBox="0 0 228.836 77.247">
  <defs>
    <clipPath id="clip-path">
      <path id="Trazado_3" data-name="Trazado 3" d="M0-11.011H228.835V-88.258H0Z" transform="translate(0 88.258)" fill="none"/>
    </clipPath>
  </defs>
  <g id="Grupo_26" data-name="Grupo 26" transform="translate(0 88.258)">
    <g id="Grupo_28" data-name="Grupo 28" transform="translate(0 -88.258)" clip-path="url(#clip-path)">
      <g id="Grupo_26-2" data-name="Grupo 26" transform="translate(62.637 50.958)">
        <path id="Trazado_1" data-name="Trazado 1" d="M-.728-.239l-.665.288A1.846,1.846,0,0,0-2-.891a1.539,1.539,0,0,0-1-.354,1.33,1.33,0,0,0-1.029.372A1.25,1.25,0,0,0-4.37,0a1.068,1.068,0,0,0,.149.572,1,1,0,0,0,.393.356,6.768,6.768,0,0,0,.893.3,6.484,6.484,0,0,1,1.205.442,1.631,1.631,0,0,1,.611.622,1.967,1.967,0,0,1,.255,1.02,2.111,2.111,0,0,1-.658,1.62,2.436,2.436,0,0,1-1.736.609A2.439,2.439,0,0,1-5.838,3.56l.687-.282A1.841,1.841,0,0,0-3.259,4.82a1.588,1.588,0,0,0,1.2-.426A1.375,1.375,0,0,0-1.648,3.4,1.147,1.147,0,0,0-1.8,2.8a.916.916,0,0,0-.382-.38,4.111,4.111,0,0,0-.769-.272A6.539,6.539,0,0,1-4.208,1.7a1.755,1.755,0,0,1-.692-.64A1.861,1.861,0,0,1-5.151.09a1.952,1.952,0,0,1,.572-1.429,2.03,2.03,0,0,1,1.512-.577A2.3,2.3,0,0,1-.728-.239" transform="translate(5.838 1.916)" fill="#595b60"/>
      </g>
      <g id="Grupo_27" data-name="Grupo 27" transform="translate(71.082 51.003)">
        <path id="Trazado_2" data-name="Trazado 2" d="M-.341-1.055a2.056,2.056,0,0,1-1.736-.874A3.8,3.8,0,0,1-2.73-4.242a5.43,5.43,0,0,1,.8-2.915,2.427,2.427,0,0,1,2.136-1.3A2.111,2.111,0,0,1,1.93-7.63a3.5,3.5,0,0,1,.665,2.263,5.709,5.709,0,0,1-.79,3.01,2.411,2.411,0,0,1-2.145,1.3m0-.714A1.536,1.536,0,0,0,.885-2.383a3.6,3.6,0,0,0,.706-1.564,8,8,0,0,0,.2-1.6,2.554,2.554,0,0,0-.452-1.607A1.412,1.412,0,0,0,.182-7.734,1.7,1.7,0,0,0-1.374-6.595,5.789,5.789,0,0,0-1.92-4.063a2.8,2.8,0,0,0,.442,1.7,1.361,1.361,0,0,0,1.137.593" transform="translate(2.73 8.454)" fill="#595b60"/>
      </g>
    </g>
    <g id="Grupo_29" data-name="Grupo 29" transform="translate(79.594 -37.109)">
      <path id="Trazado_4" data-name="Trazado 4" d="M-.556-1.014h-3.9L-3.4-8.126h.771l-.944,6.357H-.445Z" transform="translate(4.457 8.126)" fill="#595b60"/>
    </g>
    <g id="Grupo_32" data-name="Grupo 32" transform="translate(0 -88.258)" clip-path="url(#clip-path)">
      <g id="Grupo_30" data-name="Grupo 30" transform="translate(87.202 51.149)">
        <path id="Trazado_5" data-name="Trazado 5" d="M-.736,0l-.642,4.335a6.658,6.658,0,0,1-.434,1.729,2,2,0,0,1-.767.88,2.271,2.271,0,0,1-1.239.324A2.31,2.31,0,0,1-5.3,6.789a1.837,1.837,0,0,1-.6-1.525A11.974,11.974,0,0,1-5.75,3.933L-5.163,0h.773l-.62,4.122a9.944,9.944,0,0,0-.13,1.1,1.258,1.258,0,0,0,.383.984A1.38,1.38,0,0,0-3.8,6.55a1.659,1.659,0,0,0,.9-.235,1.462,1.462,0,0,0,.56-.636,4.968,4.968,0,0,0,.309-1.266L-1.374,0Z" transform="translate(5.896)" fill="#595b60"/>
      </g>
      <g id="Grupo_31" data-name="Grupo 31" transform="translate(95.447 50.971)">
        <path id="Trazado_6" data-name="Trazado 6" d="M-.723-.337l-.689.192a2.323,2.323,0,0,0-.519-1.436,1.313,1.313,0,0,0-.955-.407A1.439,1.439,0,0,0-3.977-1.5,3.6,3.6,0,0,0-4.708-.041a6.672,6.672,0,0,0-.277,1.814,2.792,2.792,0,0,0,.413,1.642,1.288,1.288,0,0,0,1.1.572c.714,0,1.284-.556,1.7-1.671l.642.27Q-1.844,4.707-3.5,4.706a1.938,1.938,0,0,1-1.7-.877A3.853,3.853,0,0,1-5.8,1.6a5.615,5.615,0,0,1,.8-2.959A2.386,2.386,0,0,1-2.911-2.7a2.064,2.064,0,0,1,1.439.563,2.773,2.773,0,0,1,.749,1.8" transform="translate(5.798 2.703)" fill="#595b60"/>
      </g>
    </g>
    <g id="Grupo_33" data-name="Grupo 33" transform="translate(103.344 -37.109)">
      <path id="Trazado_8" data-name="Trazado 8" d="M-.15,0-1.2,7.112h.771L.623,0Z" transform="translate(1.203)" fill="#595b60"/>
    </g>
    <g id="Grupo_35" data-name="Grupo 35" transform="translate(0 -88.258)" clip-path="url(#clip-path)">
      <g id="Grupo_34" data-name="Grupo 34" transform="translate(108.366 51.003)">
        <path id="Trazado_9" data-name="Trazado 9" d="M-.341-1.055a2.057,2.057,0,0,1-1.737-.874,3.8,3.8,0,0,1-.654-2.313,5.415,5.415,0,0,1,.8-2.915,2.426,2.426,0,0,1,2.135-1.3,2.1,2.1,0,0,1,1.718.824,3.5,3.5,0,0,1,.666,2.263A5.7,5.7,0,0,1,1.8-2.358a2.408,2.408,0,0,1-2.143,1.3m0-.714A1.535,1.535,0,0,0,.883-2.383a3.592,3.592,0,0,0,.708-1.564,8.112,8.112,0,0,0,.2-1.6,2.548,2.548,0,0,0-.453-1.607A1.407,1.407,0,0,0,.18-7.734,1.707,1.707,0,0,0-1.378-6.595a5.776,5.776,0,0,0-.544,2.532,2.815,2.815,0,0,0,.443,1.7,1.367,1.367,0,0,0,1.139.593" transform="translate(2.732 8.454)" fill="#595b60"/>
      </g>
    </g>
    <g id="Grupo_36" data-name="Grupo 36" transform="translate(116.878 -37.109)">
      <path id="Trazado_11" data-name="Trazado 11" d="M-.658-1.014h-.614l-2.472-6.08-.909,6.08h-.622L-4.22-8.126h.863l2.3,5.67.842-5.67H.4Z" transform="translate(5.275 8.126)" fill="#595b60"/>
    </g>
    <g id="Grupo_37" data-name="Grupo 37" transform="translate(125.631 -37.109)">
      <path id="Trazado_12" data-name="Trazado 12" d="M0-1.014,1.055-8.126H4.986l-.105.709H1.72L1.372-5.083H4.082l-.108.7H1.27L.882-1.769H4.294l-.112.755Z" transform="translate(0 8.126)" fill="#595b60"/>
    </g>
    <g id="Grupo_39" data-name="Grupo 39" transform="translate(0 -88.258)" clip-path="url(#clip-path)">
      <g id="Grupo_38" data-name="Grupo 38" transform="translate(133.113 50.958)">
        <path id="Trazado_13" data-name="Trazado 13" d="M-.729-.239l-.665.288A1.86,1.86,0,0,0-2-.891a1.546,1.546,0,0,0-1-.354,1.339,1.339,0,0,0-1.034.372A1.259,1.259,0,0,0-4.37,0a1.068,1.068,0,0,0,.149.572A.986.986,0,0,0-3.83.929a6.934,6.934,0,0,0,.892.3,6.453,6.453,0,0,1,1.208.442,1.607,1.607,0,0,1,.608.622,1.942,1.942,0,0,1,.255,1.02,2.109,2.109,0,0,1-.656,1.62,2.437,2.437,0,0,1-1.737.609A2.44,2.44,0,0,1-5.84,3.56l.689-.282A1.841,1.841,0,0,0-3.261,4.82a1.59,1.59,0,0,0,1.2-.426A1.383,1.383,0,0,0-1.648,3.4,1.147,1.147,0,0,0-1.8,2.8a.921.921,0,0,0-.382-.38,4.18,4.18,0,0,0-.768-.272A6.518,6.518,0,0,1-4.209,1.7a1.76,1.76,0,0,1-.694-.64A1.877,1.877,0,0,1-5.151.09a1.96,1.96,0,0,1,.569-1.429,2.037,2.037,0,0,1,1.515-.577A2.3,2.3,0,0,1-.729-.239" transform="translate(5.84 1.916)" fill="#595b60"/>
      </g>
    </g>
    <g id="Grupo_40" data-name="Grupo 40" transform="translate(149.236 -37.109)">
      <path id="Trazado_15" data-name="Trazado 15" d="M-.181-.537-.674,2.807h-.773L-.392-4.3H3.466l-.106.72H.271L-.073-1.24H2.586l-.105.7Z" transform="translate(1.447 4.304)" fill="#595b60"/>
    </g>
    <g id="Grupo_41" data-name="Grupo 41" transform="translate(156.595 -37.109)">
      <path id="Trazado_16" data-name="Trazado 16" d="M-.15,0-1.2,7.112h.771L.619,0Z" transform="translate(1.203)" fill="#595b60"/>
    </g>
    <g id="Grupo_42" data-name="Grupo 42" transform="translate(161.495 -37.109)">
      <path id="Trazado_17" data-name="Trazado 17" d="M-.658-1.014h-.614l-2.473-6.08-.9,6.08h-.625l1.053-7.112h.865l2.3,5.67.841-5.67H.4Z" transform="translate(5.275 8.126)" fill="#595b60"/>
    </g>
    <g id="Grupo_43" data-name="Grupo 43" transform="translate(169.588 -37.111)">
      <path id="Trazado_18" data-name="Trazado 18" d="M-.559-.717h-2.3l-.909,2.084h-.714l3.09-7.114h.873l1.1,7.114H-.233Zm-.092-.714L-1.136-4.7-2.559-1.431Z" transform="translate(4.481 5.747)" fill="#595b60"/>
    </g>
    <g id="Grupo_44" data-name="Grupo 44" transform="translate(178.142 -37.109)">
      <path id="Trazado_19" data-name="Trazado 19" d="M-.658-1.014h-.614l-2.473-6.08-.9,6.08h-.625L-4.22-8.126h.863l2.3,5.67.841-5.67H.4Z" transform="translate(5.275 8.126)" fill="#595b60"/>
    </g>
    <g id="Grupo_46" data-name="Grupo 46" transform="translate(0 -88.258)" clip-path="url(#clip-path)">
      <g id="Grupo_45" data-name="Grupo 45" transform="translate(187 50.971)">
        <path id="Trazado_20" data-name="Trazado 20" d="M-.723-.337l-.689.192a2.329,2.329,0,0,0-.519-1.436,1.314,1.314,0,0,0-.957-.407A1.441,1.441,0,0,0-3.978-1.5a3.593,3.593,0,0,0-.73,1.458,6.672,6.672,0,0,0-.277,1.814,2.8,2.8,0,0,0,.411,1.642,1.293,1.293,0,0,0,1.1.572q1.077,0,1.7-1.671l.643.27Q-1.844,4.707-3.5,4.706a1.94,1.94,0,0,1-1.7-.877A3.853,3.853,0,0,1-5.8,1.6a5.631,5.631,0,0,1,.8-2.959A2.387,2.387,0,0,1-2.91-2.7a2.063,2.063,0,0,1,1.437.563,2.764,2.764,0,0,1,.749,1.8" transform="translate(5.798 2.703)" fill="#595b60"/>
      </g>
    </g>
    <g id="Grupo_47" data-name="Grupo 47" transform="translate(194.899 -37.109)">
      <path id="Trazado_22" data-name="Trazado 22" d="M-.15,0-1.205,7.112h.773L.616,0Z" transform="translate(1.205)" fill="#595b60"/>
    </g>
    <g id="Grupo_48" data-name="Grupo 48" transform="translate(199.801 -37.109)">
      <path id="Trazado_23" data-name="Trazado 23" d="M0-1.014,1.055-8.126H4.986l-.105.709H1.718L1.372-5.083H4.08l-.106.7H1.27L.882-1.769H4.294l-.112.755Z" transform="translate(0 8.126)" fill="#595b60"/>
    </g>
    <g id="Grupo_50" data-name="Grupo 50" transform="translate(0 -88.258)" clip-path="url(#clip-path)">
      <g id="Grupo_49" data-name="Grupo 49" transform="translate(207.644 51.147)">
        <path id="Trazado_24" data-name="Trazado 24" d="M-.441-.57H-2.3L-2.76,2.546h-.771l1.053-7.114H-.505A3.126,3.126,0,0,1,.82-4.353a1.6,1.6,0,0,1,.7.656,2.018,2.018,0,0,1,.258,1.021A2.088,2.088,0,0,1,1.372-1.4,1.63,1.63,0,0,1,.313-.727L1.2,2.546H.383ZM-2.2-1.284H-.749Q.991-1.284.994-2.7q0-1.176-1.36-1.175H-1.807Z" transform="translate(3.531 4.568)" fill="#595b60"/>
      </g>
    </g>
    <g id="Grupo_51" data-name="Grupo 51" transform="translate(215.53 -37.111)">
      <path id="Trazado_26" data-name="Trazado 26" d="M-.559-.717h-2.3l-.909,2.084h-.716l3.092-7.114h.874l1.1,7.114H-.23Zm-.092-.714L-1.137-4.7-2.559-1.431Z" transform="translate(4.483 5.747)" fill="#595b60"/>
    </g>
    <g id="Grupo_54" data-name="Grupo 54" transform="translate(0 -88.258)" clip-path="url(#clip-path)">
      <g id="Grupo_52" data-name="Grupo 52" transform="translate(223.723 50.958)">
        <path id="Trazado_27" data-name="Trazado 27" d="M-.729-.239l-.665.288A1.851,1.851,0,0,0-2-.891a1.546,1.546,0,0,0-1-.354,1.325,1.325,0,0,0-1.029.372A1.242,1.242,0,0,0-4.371,0a1.053,1.053,0,0,0,.149.572.979.979,0,0,0,.393.356,6.786,6.786,0,0,0,.89.3,6.376,6.376,0,0,1,1.206.442,1.629,1.629,0,0,1,.61.622,1.942,1.942,0,0,1,.255,1.02,2.115,2.115,0,0,1-.656,1.62,2.444,2.444,0,0,1-1.74.609A2.44,2.44,0,0,1-5.841,3.56l.69-.282A1.837,1.837,0,0,0-3.263,4.82a1.58,1.58,0,0,0,1.2-.426A1.359,1.359,0,0,0-1.649,3.4,1.147,1.147,0,0,0-1.8,2.8a.912.912,0,0,0-.384-.38,4.046,4.046,0,0,0-.767-.272A6.539,6.539,0,0,1-4.209,1.7a1.732,1.732,0,0,1-.692-.64A1.837,1.837,0,0,1-5.151.09a1.943,1.943,0,0,1,.569-1.429,2.033,2.033,0,0,1,1.517-.577A2.3,2.3,0,0,1-.729-.239" transform="translate(5.841 1.916)" fill="#595b60"/>
      </g>
      <g id="Grupo_53" data-name="Grupo 53" transform="translate(53.138 17.326)">
        <path id="Trazado_28" data-name="Trazado 28" d="M-4.208-1.93A13.568,13.568,0,0,1-8.239,8.148c-2.654,2.59-6.2,3.907-10.7,3.907A15.12,15.12,0,0,1-29.129,8.571a12.857,12.857,0,0,1-4.6-10.28A12.87,12.87,0,0,1-29.062-11.95,15.489,15.489,0,0,1-18.6-15.473,15.036,15.036,0,0,1-6.51-9.7L-9.179-8.2a12.49,12.49,0,0,0-9.756-4.362,12.239,12.239,0,0,0-8.047,2.683,10.106,10.106,0,0,0-3.8,8.169A10.2,10.2,0,0,0-27.5,6.14a12.157,12.157,0,0,0,8.57,3c5.539,0,9.237-2.472,10.92-7.4l.272-.8H-19.163V-1.93Z" transform="translate(33.73 15.473)" fill="#595b60"/>
      </g>
    </g>
    <g id="Grupo_55" data-name="Grupo 55" transform="translate(207.51 -70.072)">
      <path id="Trazado_30" data-name="Trazado 30" d="M0,0V25.882H21.326V23.007H2.779V0Z" fill="#595b60"/>
    </g>
    <g id="Grupo_56" data-name="Grupo 56" transform="translate(88.603 -70.071)">
      <path id="Trazado_31" data-name="Trazado 31" d="M0-3.689V-29.571H2.781V-6.564H21.328v2.875Z" transform="translate(0 29.571)" fill="#595b60"/>
    </g>
    <g id="Grupo_57" data-name="Grupo 57" transform="translate(175.209 -70.212)">
      <path id="Trazado_32" data-name="Trazado 32" d="M-3.637-3.709-6.424-9.77H-23.352L-26.14-3.709h-3.015l12.141-26.023h4.248L-.623-3.709Zm-11.234-24.05-7.086,15.114H-7.824Z" transform="translate(29.155 29.732)" fill="#595b60"/>
    </g>
    <g id="Grupo_63" data-name="Grupo 63" transform="translate(0 -88.258)" clip-path="url(#clip-path)">
      <g id="Grupo_58" data-name="Grupo 58" transform="translate(110.567 17.325)">
        <path id="Trazado_33" data-name="Trazado 33" d="M-3.566-3.433A15.17,15.17,0,0,1-13.727.016,15.178,15.178,0,0,1-23.955-3.469a12.815,12.815,0,0,1-4.632-10.279,12.834,12.834,0,0,1,4.7-10.241,15.138,15.138,0,0,1,10.162-3.525A14.931,14.931,0,0,1-3.6-23.993,12.88,12.88,0,0,1,1.066-13.748,12.852,12.852,0,0,1-3.566-3.433M-5.68-21.919A12.252,12.252,0,0,0-13.727-24.6a12.131,12.131,0,0,0-8.57,3.076,10.1,10.1,0,0,0-3.346,7.776A10.26,10.26,0,0,0-22.361-5.86,12.36,12.36,0,0,0-13.727-2.9a12.092,12.092,0,0,0,8.571-3,10.2,10.2,0,0,0,3.279-7.847,10.107,10.107,0,0,0-3.8-8.17" transform="translate(28.587 27.514)" fill="#595b60"/>
      </g>
      <g id="Grupo_59" data-name="Grupo 59" transform="translate(146.164 18.186)">
        <path id="Trazado_34" data-name="Trazado 34" d="M-3.853-2.762c0,4.276-2.614,6.506-8.49,6.506H-30.888V-22.139h18.809a7.313,7.313,0,0,1,5.323,1.852,6.555,6.555,0,0,1,1.908,4.955,5.842,5.842,0,0,1-2.847,5.22l-.994.643,1.107.423c2.457.937,3.729,2.953,3.729,6.284m-4.989-9.257A4.1,4.1,0,0,0-7.529-15.07,4.09,4.09,0,0,0-8.7-18.119a4.324,4.324,0,0,0-3.141-1.145H-28.109v8.46h16.1a4.421,4.421,0,0,0,3.17-1.215m2.11,8.62c0-3.007-1.778-4.53-4.948-4.53H-28.109v8.8h15.8C-8.844.869-6.732-.464-6.732-3.4" transform="translate(30.888 22.139)" fill="#595b60"/>
      </g>
      <g id="Grupo_60" data-name="Grupo 60" transform="translate(27.488 -0.001)">
        <path id="Trazado_35" data-name="Trazado 35" d="M-2.828-6.18c-3.981-.6-9.825.587-15.085,1.54.779-1.037,4.844-6.742,4.752-12.825-.135-9.014-8.8-7.64-9.488-16.5C-23.461-44.512-1.854-56.827,3.143-44.157,5.612-37.89-9.23-28.314-7.6-17.615c.871,5.722,2.822,9.261,4.775,11.435" transform="translate(22.671 49.537)" fill="#ff3a1e"/>
      </g>
      <g id="Grupo_61" data-name="Grupo 61" transform="translate(9.329 38.17)">
        <path id="Trazado_36" data-name="Trazado 36" d="M-1.1,0c.09,1.877.732,5.926,4.476,7.376,4.939,1.917,20.91-4.252,27.6-1.739,7.873,2.958,12.2,14.687,6.022,25.478-7.874,13.758-26.614,8.6-29.14-7.138C7.2,19.907,6.308,12.6.9,10.857a17.169,17.169,0,0,0-9.738.206C-5.742,9.173-3.245,4.538-1.1,0" transform="translate(8.834)" fill="#1b6dbb"/>
      </g>
      <g id="Grupo_62" data-name="Grupo 62" transform="translate(0 13.8)">
        <path id="Trazado_37" data-name="Trazado 37" d="M-4.706-1.489s-7-.7-10.865,4-8.394,22.868-16.422,21.822S-38.941,10.87-32.921,6c5.589-4.523,11.727-.8,16.268-5.918a33.975,33.975,0,0,0,6.5-12.013,7.945,7.945,0,0,0-.065,1.768c.37,4.8,3.078,6.606,5.507,8.677" transform="translate(37.725 11.934)" fill="#fc0"/>
      </g>
    </g>
  </g>
</svg>
