<svg xmlns="http://www.w3.org/2000/svg" xmlns:xlink="http://www.w3.org/1999/xlink" width="168.038" height="70.492" viewBox="0 0 168.038 70.492">
  <defs>
    <clipPath id="clip-path">
      <rect id="Rectángulo_359" data-name="Rectángulo 359" width="168.038" height="70.492" fill="none"/>
    </clipPath>
  </defs>
  <g id="Logo" clip-path="url(#clip-path)">
    <path id="Trazado_356" data-name="Trazado 356" d="M2.97,68.087H148.937a16.7,16.7,0,0,0,16.7-16.693L165.619,2.97H19.665A16.7,16.7,0,0,0,2.97,19.666Z" transform="translate(-0.283 -0.283)" fill="#e1251b"/>
    <path id="Trazado_357" data-name="Trazado 357" d="M168.022,0H19.382A19.4,19.4,0,0,0,0,19.383V70.492H148.654a19.4,19.4,0,0,0,19.384-19.38ZM148.654,67.8H2.687V19.383a16.7,16.7,0,0,1,16.695-16.7H165.336l.014,48.424a16.7,16.7,0,0,1-16.7,16.693" transform="translate(0 0)" fill="#fff"/>
    <path id="Trazado_358" data-name="Trazado 358" d="M179.521,53.524a2.386,2.386,0,0,0-1.3-1.28,2.387,2.387,0,0,0-.942-.185,2.468,2.468,0,0,0-1.732.7,2.5,2.5,0,0,0-.532.769,2.4,2.4,0,0,0-.2.959,2.439,2.439,0,0,0,.2.973,2.512,2.512,0,0,0,.532.776,2.308,2.308,0,0,0,.78.511,2.472,2.472,0,0,0,.952.185,2.387,2.387,0,0,0,.942-.185,2.311,2.311,0,0,0,.781-.511,2.458,2.458,0,0,0,.524-.776,2.361,2.361,0,0,0,.195-.973,2.328,2.328,0,0,0-.195-.959m-.4,1.789a2.027,2.027,0,0,1-.427.664,1.867,1.867,0,0,1-.635.435,2.01,2.01,0,0,1-1.585,0,1.864,1.864,0,0,1-.641-.435,1.985,1.985,0,0,1-.422-.664,2.157,2.157,0,0,1-.153-.83,2.1,2.1,0,0,1,.153-.813,1.922,1.922,0,0,1,.422-.658,2,2,0,0,1,2.861,0,1.962,1.962,0,0,1,.427.658,2.167,2.167,0,0,1,.149.813,2.226,2.226,0,0,1-.149.83" transform="translate(-16.647 -4.958)" fill="#fff"/>
    <path id="Trazado_359" data-name="Trazado 359" d="M178.363,54.553a.694.694,0,0,0,.217-.566.762.762,0,0,0-.242-.612,1.169,1.169,0,0,0-.754-.2h-1.107v2.849h.447V54.8h.468l.776,1.228h.477l-.814-1.259a1.008,1.008,0,0,0,.532-.214m-.974-.114h-.465v-.907h.589a1.132,1.132,0,0,1,.222.021.528.528,0,0,1,.2.06.369.369,0,0,1,.139.128.393.393,0,0,1,.059.23.447.447,0,0,1-.063.262.357.357,0,0,1-.166.143.723.723,0,0,1-.238.056c-.09,0-.182.008-.28.008" transform="translate(-16.806 -5.064)" fill="#fff"/>
    <path id="Trazado_360" data-name="Trazado 360" d="M45.384,54.055c-5.872,0-9.549-3.257-9.549-8.819V39.1c0-5.351,3.883-8.921,9.5-8.921,5.826,0,9.553,3.253,9.553,8.87v6.087c0,5.721-3.623,8.924-9.5,8.924m-4.562-8.924c0,2.677,1.47,4.618,4.513,4.618A4.286,4.286,0,0,0,49.9,45.132V39.15c0-2.728-1.576-4.621-4.518-4.621a4.259,4.259,0,0,0-4.562,4.621Z" transform="translate(-3.413 -2.874)" fill="#fff"/>
    <path id="Trazado_361" data-name="Trazado 361" d="M77.21,53.779H73.59c-.418,0-.578-.155-.578-.628v-.679c0-.529-.311-.421-.679-.108A8.2,8.2,0,0,1,67.081,54.1c-5.354,0-8.286-3.571-8.286-8.819V31.321c0-.474.2-.684.624-.684H63.1c.47,0,.681.21.681.63V45.176c0,2.676,1.413,4.618,4.51,4.618a4.326,4.326,0,0,0,4.566-4.568v-13.9c0-.474.213-.684.687-.684h3.621c.42,0,.683.21.683.63V53.1c0,.475-.214.68-.635.68" transform="translate(-5.599 -2.918)" fill="#fff"/>
    <path id="Trazado_362" data-name="Trazado 362" d="M154.329,43.187H142.464a.954.954,0,0,0-1,.949v.89a4.521,4.521,0,0,0,4.566,4.669,5.822,5.822,0,0,0,4.669-2.571c.318-.419.632-.576,1.155-.208l2.313,1.467c.523.373.783.632.523,1.1-1.734,3.2-5.04,4.57-8.557,4.57-5.77,0-9.6-3.468-9.6-8.766V39.357c0-5.405,3.938-9.183,9.5-9.183,5.614,0,9.5,3.622,9.5,9.13v2.52a1.292,1.292,0,0,1-1.2,1.363m-8.242-8.713c-2.889,0-4.145,2-4.358,4.569-.052.366.054.575.683.575h7.558c.47,0,.579-.209.579-.784-.16-2.625-1.736-4.359-4.462-4.359" transform="translate(-13.002 -2.874)" fill="#fff"/>
    <path id="Trazado_363" data-name="Trazado 363" d="M171.194,52.839a15.581,15.581,0,0,1-4.565.577c-5.036,0-6.561-2.836-6.561-6.565V25.073a.768.768,0,0,1,.63-.786l3.409-.788c.637-.159.841.212.841.578v5.249c0,.366.158.628.683.628h4.461a.6.6,0,0,1,.681.63v2.835c0,.417-.207.629-.681.629H165.58c-.423,0-.631.159-.631.578V45.908c0,1.835.577,2.939,2.465,2.939a26.107,26.107,0,0,0,2.731-.315c1-.207,1.207.109,1.311.682l.473,2.519c.106.735-.205.894-.735,1.106" transform="translate(-15.243 -2.235)" fill="#fff"/>
    <path id="Trazado_364" data-name="Trazado 364" d="M95.051,34.8c-.1.686-.421.686-.841.632a9.838,9.838,0,0,0-1.628-.211c-3.721,0-4.934,1.986-4.934,5.294V53.061a.606.606,0,0,1-.678.679H83.345c-.474,0-.731-.205-.731-.627V31.284A.609.609,0,0,1,83.3,30.6H86.44c.423,0,.686.21.686.63v2.542c0,.369.324.3.578-.073a7.618,7.618,0,0,1,5.928-3.463,5.291,5.291,0,0,1,1.626.207c.633.157.685.471.577.946Z" transform="translate(-7.867 -2.88)" fill="#fff"/>
    <path id="Trazado_365" data-name="Trazado 365" d="M121.968,30.445a9.162,9.162,0,0,0-6.77,2.937c-.214.213-.423.213-.684-.053a7.273,7.273,0,0,0-5.994-2.711,7.919,7.919,0,0,0-4.64,1.915l0-1.094a.6.6,0,0,0-.681-.629H99.553a.611.611,0,0,0-.683.685V53.328c0,.417.261.626.733.626h3.627c.472,0,.683-.209.683-.681V39.312a4.273,4.273,0,0,1,4.25-4.565,4.363,4.363,0,0,1,4.2,4.565V53.328c0,.417.212.626.681.626h3.622c.475,0,.631-.209.631-.681V39.312a4.513,4.513,0,0,1,4.252-4.565c3.094,0,4.3,2.152,4.3,4.565V53.328c0,.417.157.626.632.626h3.671c.419,0,.632-.209.632-.681V39.312c0-5.193-3.36-8.867-8.817-8.867" transform="translate(-9.415 -2.9)" fill="#fff"/>
    <path id="Trazado_366" data-name="Trazado 366" d="M30.8,28.812H27.173a.61.61,0,0,0-.681.681v1.368a11.918,11.918,0,0,0-4.518-.817c-5.611,0-9.5,3.57-9.5,8.921v6.142c0,5.562,3.672,8.819,9.551,8.819A11.944,11.944,0,0,0,26.6,53.1c0,.324,0,1.62,0,1.62a4.526,4.526,0,0,1-4.565,4.674,5.833,5.833,0,0,1-4.672-2.572c-.315-.422-.63-.577-1.155-.209L13.895,58.08c-.524.368-.784.629-.524,1.1,1.733,3.2,5.039,4.565,8.555,4.565,5.773,0,9.605-3.463,9.605-8.762V29.442c0-.419-.262-.63-.732-.63M26.544,45a4.286,4.286,0,0,1-4.569,4.618c-3.043,0-4.508-1.941-4.508-4.618V39.021A4.259,4.259,0,0,1,22.029,34.4c2.94,0,4.515,1.893,4.515,4.621Z" transform="translate(-1.188 -2.744)" fill="#fff"/>
    <path id="Trazado_367" data-name="Trazado 367" d="M35.746,17.31a5.514,5.514,0,0,0,.987.262c.363.128,1.009.563,1.037,2.033l0,0,.078,8.423a12.96,12.96,0,0,1,7.237-2.062A13.1,13.1,0,0,1,52.3,27.995l-.029-8.387,0,0c.028-1.47.678-1.9,1.039-2.033a5.4,5.4,0,0,0,.985-.262,4.4,4.4,0,0,0,3.191-4.231,3.888,3.888,0,0,0-3.938-3.62,13.332,13.332,0,0,0-3.787.992l.013-.021s-1.337.589-2.069-.023l0,.021a5.119,5.119,0,0,0-2.676-1.072v0h-.024v0a5.125,5.125,0,0,0-2.678,1.072l0-.021c-.733.612-2.066.023-2.066.023l.01.021A13.33,13.33,0,0,0,36.5,9.459a3.884,3.884,0,0,0-3.938,3.62,4.4,4.4,0,0,0,3.188,4.231" transform="translate(-3.1 -0.891)" fill="#fff"/>
  </g>
</svg>
