<svg width="169" height="71" viewBox="0 0 169 71" fill="none" xmlns="http://www.w3.org/2000/svg">
<g clip-path="url(#clip0_177_289)">
<mask id="mask0_177_289" style="mask-type:luminance" maskUnits="userSpaceOnUse" x="0" y="0" width="169" height="71">
<path d="M168.038 0H0V70.492H168.038V0Z" fill="white"/>
</mask>
<g mask="url(#mask0_177_289)">
<path d="M168.022 0H19.382C14.2429 0.0047663 9.31559 2.04846 5.68177 5.68247C2.04794 9.31649 0.00450116 14.2439 0 19.383L0 70.492H148.654C153.793 70.4878 158.72 68.4447 162.354 64.8113C165.989 61.1779 168.033 56.251 168.038 51.112L168.022 0ZM148.654 67.8H2.687V19.383C2.687 14.9548 4.44577 10.7078 7.57655 7.57608C10.7073 4.44437 14.9538 2.68433 19.382 2.683H165.336L165.35 51.107C165.348 55.5349 163.588 59.7808 160.456 62.9112C157.325 66.0415 153.078 67.8 148.65 67.8" fill="white"/>
<path d="M162.874 48.5662C162.627 47.9841 162.16 47.5238 161.574 47.2862C161.276 47.1613 160.955 47.0984 160.632 47.1012C159.985 47.0985 159.363 47.3499 158.9 47.8012C158.676 48.0218 158.495 48.2827 158.368 48.5702C158.236 48.8727 158.168 49.1991 158.168 49.5292C158.167 49.8638 158.235 50.195 158.368 50.5022C158.495 50.792 158.675 51.0553 158.9 51.2782C159.122 51.4998 159.388 51.6737 159.68 51.7892C159.982 51.9131 160.306 51.976 160.632 51.9742C160.955 51.9769 161.276 51.914 161.574 51.7892C161.866 51.6737 162.132 51.4998 162.355 51.2782C162.578 51.0555 162.756 50.792 162.879 50.5022C163.012 50.1953 163.079 49.8636 163.074 49.5292C163.078 49.1993 163.011 48.8724 162.879 48.5702M162.479 50.3592C162.382 50.6063 162.236 50.832 162.052 51.0232C161.873 51.2107 161.657 51.3588 161.417 51.4582C161.167 51.5656 160.897 51.621 160.624 51.621C160.352 51.621 160.082 51.5656 159.832 51.4582C159.59 51.3597 159.372 51.2115 159.191 51.0232C159.007 50.8322 158.864 50.6064 158.769 50.3592C158.664 50.0953 158.612 49.8132 158.616 49.5292C158.613 49.2507 158.665 48.9743 158.769 48.7162C158.863 48.4702 159.007 48.2463 159.191 48.0582C159.377 47.8675 159.6 47.716 159.845 47.6126C160.091 47.5092 160.355 47.4559 160.621 47.4559C160.888 47.4559 161.152 47.5092 161.398 47.6126C161.643 47.716 161.866 47.8675 162.052 48.0582C162.237 48.2465 162.382 48.4703 162.479 48.7162C162.58 48.9751 162.631 49.2511 162.628 49.5292C162.632 49.8128 162.581 50.0945 162.479 50.3592Z" fill="white"/>
<path d="M161.558 49.4892C161.635 49.4175 161.694 49.3292 161.731 49.2312C161.769 49.1332 161.784 49.0279 161.775 48.9232C161.783 48.8096 161.765 48.6957 161.723 48.5898C161.681 48.4839 161.616 48.3887 161.533 48.3112C161.312 48.1602 161.046 48.0896 160.779 48.1112H159.672V50.9602H160.119V49.7362H160.587L161.363 50.9642H161.84L161.026 49.7052C161.22 49.6869 161.405 49.6126 161.558 49.4912M160.584 49.3772H160.119V48.4702H160.708C160.782 48.4699 160.857 48.477 160.93 48.4912C161 48.4977 161.068 48.5181 161.13 48.5512C161.187 48.5811 161.234 48.6252 161.269 48.6792C161.312 48.748 161.332 48.8283 161.328 48.9092C161.334 49.001 161.312 49.0925 161.265 49.1712C161.226 49.2351 161.168 49.2852 161.099 49.3142C161.023 49.3463 160.943 49.3652 160.861 49.3702C160.771 49.3702 160.679 49.3782 160.581 49.3782" fill="white"/>
<path d="M41.9709 51.1812C36.0989 51.1812 32.4219 47.9242 32.4219 42.3622V36.2262C32.4219 30.8752 36.3049 27.3052 41.9219 27.3052C47.7479 27.3052 51.4749 30.5582 51.4749 36.1752V42.2622C51.4749 47.9832 47.8519 51.1862 41.9749 51.1862M37.4129 42.2622C37.4129 44.9392 38.8829 46.8802 41.9259 46.8802C42.5408 46.9217 43.1575 46.8302 43.7338 46.6117C44.3102 46.3933 44.8326 46.0531 45.2656 45.6144C45.6985 45.1757 46.0317 44.6488 46.2425 44.0696C46.4532 43.4904 46.5366 42.8725 46.4869 42.2582V36.2762C46.4869 33.5482 44.9109 31.6552 41.9689 31.6552C41.3528 31.6088 40.7341 31.6971 40.1556 31.9138C39.577 32.1304 39.0526 32.4704 38.6186 32.91C38.1846 33.3496 37.8514 33.8784 37.6421 34.4597C37.4329 35.041 37.3526 35.6608 37.4069 36.2762L37.4129 42.2622Z" fill="white"/>
<path d="M71.6103 50.8612H67.9903C67.5723 50.8612 67.4123 50.7062 67.4123 50.2332V49.5542C67.4123 49.0252 67.1013 49.1332 66.7333 49.4462C65.2366 50.6157 63.3802 51.2293 61.4813 51.1822C56.1273 51.1822 53.1953 47.6112 53.1953 42.3632V28.4032C53.1953 27.9292 53.3953 27.7192 53.8193 27.7192H57.5003C57.9703 27.7192 58.1813 27.9292 58.1813 28.3492V42.2582C58.1813 44.9342 59.5943 46.8762 62.6913 46.8762C63.3002 46.9111 63.9096 46.8168 64.4795 46.5995C65.0494 46.3823 65.5669 46.0469 65.9981 45.6156C66.4293 45.1842 66.7644 44.6666 66.9814 44.0966C67.1984 43.5266 67.2924 42.9171 67.2573 42.3082V28.4082C67.2573 27.9342 67.4703 27.7242 67.9443 27.7242H71.5653C71.9853 27.7242 72.2483 27.9342 72.2483 28.3542V50.1822C72.2483 50.6572 72.0343 50.8622 71.6133 50.8622" fill="white"/>
<path d="M141.327 40.3128H129.462C129.334 40.3066 129.205 40.3265 129.084 40.3713C128.963 40.4162 128.853 40.485 128.76 40.5737C128.666 40.6624 128.592 40.7691 128.54 40.8873C128.489 41.0056 128.463 41.133 128.462 41.2618V42.1518C128.442 42.7617 128.546 43.3692 128.767 43.938C128.988 44.5067 129.322 45.0248 129.749 45.461C130.175 45.8973 130.686 46.2426 131.249 46.4763C131.813 46.71 132.418 46.8272 133.028 46.8208C133.955 46.795 134.862 46.5482 135.674 46.101C136.486 45.6538 137.18 45.0191 137.697 44.2498C138.015 43.8308 138.329 43.6738 138.852 44.0418L141.165 45.5088C141.688 45.8818 141.948 46.1408 141.688 46.6088C139.954 49.8088 136.648 51.1788 133.131 51.1788C127.361 51.1788 123.531 47.7108 123.531 42.4128V36.4828C123.531 31.0778 127.469 27.2998 133.031 27.2998C138.645 27.2998 142.531 30.9218 142.531 36.4298V38.9498C142.551 39.2892 142.436 39.6226 142.211 39.8777C141.986 40.1328 141.67 40.2892 141.331 40.3128M133.089 31.5998C130.2 31.5998 128.944 33.5998 128.731 36.1688C128.679 36.5348 128.785 36.7438 129.414 36.7438H136.972C137.442 36.7438 137.551 36.5348 137.551 35.9598C137.391 33.3348 135.815 31.5998 133.089 31.5998Z" fill="white"/>
<path d="M155.951 50.6039C154.466 51.0211 152.928 51.2155 151.386 51.1809C146.35 51.1809 144.825 48.3449 144.825 44.6159V22.8379C144.817 22.653 144.877 22.4716 144.993 22.3272C145.109 22.1828 145.273 22.085 145.455 22.0519L148.864 21.2639C149.501 21.1049 149.705 21.4759 149.705 21.8419V27.0909C149.705 27.4569 149.863 27.7189 150.388 27.7189H154.849C154.937 27.7068 155.026 27.7143 155.111 27.7409C155.196 27.7675 155.273 27.8126 155.338 27.8728C155.403 27.9331 155.454 28.007 155.488 28.0894C155.521 28.1717 155.535 28.2603 155.53 28.3489V31.1839C155.53 31.6009 155.323 31.8129 154.849 31.8129H150.337C149.914 31.8129 149.706 31.9719 149.706 32.3909V43.6729C149.706 45.5079 150.283 46.6119 152.171 46.6119C153.086 46.5549 153.998 46.4498 154.902 46.2969C155.902 46.0899 156.109 46.4059 156.213 46.9789L156.686 49.4979C156.792 50.2329 156.481 50.3919 155.951 50.6039Z" fill="white"/>
<path d="M87.1845 31.9202C87.0845 32.6062 86.7635 32.6062 86.3435 32.5522C85.8077 32.4366 85.2631 32.3661 84.7155 32.3412C80.9945 32.3412 79.7815 34.3272 79.7815 37.6352V50.1812C79.7935 50.2731 79.7841 50.3665 79.7543 50.4543C79.7245 50.542 79.6749 50.6217 79.6094 50.6873C79.5439 50.7529 79.4643 50.8026 79.3766 50.8326C79.2889 50.8625 79.1955 50.872 79.1035 50.8602H75.4785C75.0045 50.8602 74.7475 50.6552 74.7475 50.2332V28.4042C74.7351 28.3113 74.7444 28.2167 74.7745 28.128C74.8046 28.0392 74.8548 27.9586 74.9212 27.8924C74.9876 27.8262 75.0684 27.7762 75.1572 27.7463C75.2461 27.7165 75.3407 27.7075 75.4335 27.7202H78.5735C78.9965 27.7202 79.2595 27.9302 79.2595 28.3502V30.8922C79.2595 31.2612 79.5835 31.1922 79.8375 30.8192C80.4857 29.8183 81.3597 28.9835 82.3893 28.3821C83.4189 27.7806 84.5754 27.4292 85.7655 27.3562C86.315 27.3403 86.8636 27.4102 87.3915 27.5632C88.0245 27.7202 88.0765 28.0342 87.9685 28.5092L87.1845 31.9202Z" fill="white"/>
<path d="M112.552 27.545C111.282 27.5385 110.024 27.7962 108.859 28.3018C107.693 28.8074 106.645 29.5499 105.782 30.482C105.568 30.695 105.359 30.695 105.098 30.429C104.383 29.538 103.467 28.8281 102.425 28.3571C101.384 27.8861 100.246 27.6671 99.1043 27.718C97.3909 27.8363 95.7624 28.5084 94.4643 29.633V28.539C94.4694 28.4505 94.4549 28.362 94.4217 28.2798C94.3885 28.1976 94.3375 28.1238 94.2724 28.0637C94.2073 28.0035 94.1297 27.9585 94.0451 27.932C93.9605 27.9054 93.8711 27.8979 93.7833 27.91H90.1373C90.0447 27.8983 89.9505 27.9079 89.8621 27.9382C89.7738 27.9684 89.6935 28.0186 89.6275 28.0847C89.5616 28.1509 89.5117 28.2313 89.4816 28.3198C89.4516 28.4082 89.4423 28.5024 89.4543 28.595V50.428C89.4543 50.845 89.7153 51.054 90.1873 51.054H93.8143C94.2863 51.054 94.4973 50.845 94.4973 50.373V36.412C94.4574 35.8288 94.5375 35.2435 94.7329 34.6924C94.9282 34.1414 95.2345 33.6363 95.6329 33.2084C96.0313 32.7805 96.5132 32.4389 97.0489 32.2047C97.5846 31.9706 98.1627 31.8488 98.7473 31.847C99.3238 31.868 99.8905 32.003 100.414 32.2443C100.938 32.4857 101.409 32.8286 101.8 33.2531C102.191 33.6776 102.493 34.1754 102.69 34.7177C102.887 35.2599 102.974 35.8358 102.947 36.412V50.428C102.947 50.845 103.159 51.054 103.628 51.054H107.25C107.725 51.054 107.881 50.845 107.881 50.373V36.412C107.866 35.25 108.3 34.1269 109.092 33.2766C109.884 32.4262 110.973 31.9142 112.133 31.847C115.227 31.847 116.433 33.999 116.433 36.412V50.428C116.433 50.845 116.59 51.054 117.065 51.054H120.736C121.155 51.054 121.368 50.845 121.368 50.373V36.412C121.368 31.219 118.009 27.545 112.552 27.545Z" fill="white"/>
<path d="M29.6112 26.0682H25.9842C25.892 26.0567 25.7984 26.0663 25.7105 26.0965C25.6226 26.1266 25.5428 26.1764 25.4771 26.2421C25.4114 26.3078 25.3616 26.3877 25.3314 26.4755C25.3013 26.5634 25.2916 26.657 25.3032 26.7492V28.1172C23.8643 27.5546 22.3299 27.2771 20.7852 27.3002C15.1742 27.3002 11.2852 30.8702 11.2852 36.2212V42.3632C11.2852 47.9252 14.9572 51.1822 20.8362 51.1822C22.4005 51.2092 23.955 50.9285 25.4112 50.3562C25.4112 50.6802 25.4112 51.9762 25.4112 51.9762C25.4311 52.5862 25.3275 53.1939 25.1066 53.7629C24.8857 54.3318 24.5519 54.8501 24.1255 55.2868C23.699 55.7234 23.1887 56.0693 22.6251 56.3036C22.0616 56.5379 21.4565 56.6558 20.8462 56.6502C19.919 56.6238 19.0115 56.3767 18.199 55.9294C17.3865 55.4821 16.6923 54.8475 16.1742 54.0782C15.8592 53.6562 15.5442 53.5012 15.0192 53.8692L12.7062 55.3362C12.1822 55.7042 11.9222 55.9652 12.1822 56.4362C13.9152 59.6362 17.2212 61.0012 20.7372 61.0012C26.5102 61.0012 30.3422 57.5382 30.3422 52.2392V26.6982C30.3422 26.2792 30.0812 26.0682 29.6112 26.0682ZM25.3552 42.2562C25.4044 42.8709 25.3204 43.4891 25.1089 44.0684C24.8974 44.6477 24.5634 45.1745 24.1296 45.6129C23.6959 46.0513 23.1726 46.391 22.5956 46.6086C22.0186 46.8263 21.4014 46.9169 20.7862 46.8742C17.7432 46.8742 16.2782 44.9332 16.2782 42.2562V36.2772C16.2239 35.6618 16.3042 35.042 16.5134 34.4607C16.7227 33.8795 17.0558 33.3507 17.4899 32.911C17.9239 32.4714 18.4483 32.1315 19.0269 31.9148C19.6054 31.6981 20.2241 31.6099 20.8402 31.6562C23.7802 31.6562 25.3552 33.5492 25.3552 36.2772V42.2562Z" fill="white"/>
<path d="M32.6469 16.4188C32.9671 16.5364 33.2975 16.6242 33.6339 16.6808C33.9969 16.8088 34.6429 17.2438 34.6709 18.7138L34.7489 27.1368C36.9042 25.7488 39.4227 25.0312 41.9859 25.0748C44.5372 25.034 47.0448 25.7392 49.2009 27.1038L49.1719 18.7168C49.1999 17.2468 49.8499 16.8168 50.2109 16.6838C50.5468 16.6277 50.8766 16.54 51.1959 16.4218C52.1153 16.159 52.924 15.604 53.4998 14.8406C54.0756 14.0771 54.387 13.147 54.3869 12.1908C54.3184 11.1981 53.8719 10.2694 53.1393 9.59595C52.4068 8.92253 51.4439 8.55562 50.4489 8.57077C49.1446 8.71329 47.8685 9.04756 46.6619 9.56277L46.6749 9.54177C46.6749 9.54177 45.3379 10.1308 44.6059 9.51877V9.53977C43.835 8.93347 42.9062 8.56138 41.9299 8.46777H41.9059C40.929 8.56134 39.9995 8.93341 39.2279 9.53977V9.51877C38.4949 10.1308 37.1619 9.54177 37.1619 9.54177L37.1719 9.56277C35.9705 9.04802 34.6999 8.71277 33.4009 8.56777C32.4057 8.55164 31.4422 8.91822 30.7094 9.59184C29.9766 10.2655 29.5304 11.1947 29.4629 12.1878C29.4626 13.1436 29.7736 14.0735 30.3488 14.8368C30.924 15.6002 31.7321 16.1555 32.6509 16.4188" fill="white"/>
</g>
</g>
<defs>
<clipPath id="clip0_177_289">
<rect width="168.038" height="70.492" fill="white"/>
</clipPath>
</defs>
</svg>
